G04 #@! TF.GenerationSoftware,KiCad,Pcbnew,8.0.4*
G04 #@! TF.CreationDate,2024-09-14T23:48:23-04:00*
G04 #@! TF.ProjectId,Signal_Processing_Board,5369676e-616c-45f5-9072-6f6365737369,rev?*
G04 #@! TF.SameCoordinates,Original*
G04 #@! TF.FileFunction,Legend,Bot*
G04 #@! TF.FilePolarity,Positive*
%FSLAX46Y46*%
G04 Gerber Fmt 4.6, Leading zero omitted, Abs format (unit mm)*
G04 Created by KiCad (PCBNEW 8.0.4) date 2024-09-14 23:48:23*
%MOMM*%
%LPD*%
G01*
G04 APERTURE LIST*
%ADD10C,0.300000*%
%ADD11C,1.500000*%
%ADD12C,1.524000*%
%ADD13C,5.700000*%
%ADD14R,1.700000X1.700000*%
%ADD15O,1.700000X1.700000*%
%ADD16R,2.100000X2.100000*%
%ADD17C,2.100000*%
%ADD18R,2.400000X1.600000*%
%ADD19O,2.400000X1.600000*%
%ADD20C,1.600000*%
%ADD21O,1.600000X1.600000*%
%ADD22R,1.905000X2.000000*%
%ADD23O,1.905000X2.000000*%
%ADD24R,2.000000X2.000000*%
%ADD25C,2.000000*%
%ADD26C,1.300000*%
%ADD27R,1.300000X1.300000*%
%ADD28O,2.000000X1.200000*%
%ADD29C,1.371600*%
%ADD30R,1.371600X1.371600*%
%ADD31O,1.500000X1.500000*%
%ADD32R,1.500000X1.500000*%
G04 APERTURE END LIST*
D10*
X332338346Y-158045828D02*
X331338346Y-158045828D01*
X330909774Y-159617257D02*
X332338346Y-159617257D01*
X332338346Y-159617257D02*
X332338346Y-156617257D01*
X332338346Y-156617257D02*
X330909774Y-156617257D01*
X327909774Y-159331542D02*
X328052631Y-159474400D01*
X328052631Y-159474400D02*
X328481203Y-159617257D01*
X328481203Y-159617257D02*
X328766917Y-159617257D01*
X328766917Y-159617257D02*
X329195488Y-159474400D01*
X329195488Y-159474400D02*
X329481203Y-159188685D01*
X329481203Y-159188685D02*
X329624060Y-158902971D01*
X329624060Y-158902971D02*
X329766917Y-158331542D01*
X329766917Y-158331542D02*
X329766917Y-157902971D01*
X329766917Y-157902971D02*
X329624060Y-157331542D01*
X329624060Y-157331542D02*
X329481203Y-157045828D01*
X329481203Y-157045828D02*
X329195488Y-156760114D01*
X329195488Y-156760114D02*
X328766917Y-156617257D01*
X328766917Y-156617257D02*
X328481203Y-156617257D01*
X328481203Y-156617257D02*
X328052631Y-156760114D01*
X328052631Y-156760114D02*
X327909774Y-156902971D01*
X326624060Y-158045828D02*
X325624060Y-158045828D01*
X325195488Y-159617257D02*
X326624060Y-159617257D01*
X326624060Y-159617257D02*
X326624060Y-156617257D01*
X326624060Y-156617257D02*
X325195488Y-156617257D01*
X324338345Y-156617257D02*
X322624060Y-156617257D01*
X323481202Y-159617257D02*
X323481202Y-156617257D01*
X319624060Y-156617257D02*
X317766917Y-156617257D01*
X317766917Y-156617257D02*
X318766917Y-157760114D01*
X318766917Y-157760114D02*
X318338346Y-157760114D01*
X318338346Y-157760114D02*
X318052632Y-157902971D01*
X318052632Y-157902971D02*
X317909774Y-158045828D01*
X317909774Y-158045828D02*
X317766917Y-158331542D01*
X317766917Y-158331542D02*
X317766917Y-159045828D01*
X317766917Y-159045828D02*
X317909774Y-159331542D01*
X317909774Y-159331542D02*
X318052632Y-159474400D01*
X318052632Y-159474400D02*
X318338346Y-159617257D01*
X318338346Y-159617257D02*
X319195489Y-159617257D01*
X319195489Y-159617257D02*
X319481203Y-159474400D01*
X319481203Y-159474400D02*
X319624060Y-159331542D01*
X314909774Y-159617257D02*
X316624060Y-159617257D01*
X315766917Y-159617257D02*
X315766917Y-156617257D01*
X315766917Y-156617257D02*
X316052631Y-157045828D01*
X316052631Y-157045828D02*
X316338346Y-157331542D01*
X316338346Y-157331542D02*
X316624060Y-157474400D01*
X313195488Y-157902971D02*
X313481203Y-157760114D01*
X313481203Y-157760114D02*
X313624060Y-157617257D01*
X313624060Y-157617257D02*
X313766917Y-157331542D01*
X313766917Y-157331542D02*
X313766917Y-157188685D01*
X313766917Y-157188685D02*
X313624060Y-156902971D01*
X313624060Y-156902971D02*
X313481203Y-156760114D01*
X313481203Y-156760114D02*
X313195488Y-156617257D01*
X313195488Y-156617257D02*
X312624060Y-156617257D01*
X312624060Y-156617257D02*
X312338346Y-156760114D01*
X312338346Y-156760114D02*
X312195488Y-156902971D01*
X312195488Y-156902971D02*
X312052631Y-157188685D01*
X312052631Y-157188685D02*
X312052631Y-157331542D01*
X312052631Y-157331542D02*
X312195488Y-157617257D01*
X312195488Y-157617257D02*
X312338346Y-157760114D01*
X312338346Y-157760114D02*
X312624060Y-157902971D01*
X312624060Y-157902971D02*
X313195488Y-157902971D01*
X313195488Y-157902971D02*
X313481203Y-158045828D01*
X313481203Y-158045828D02*
X313624060Y-158188685D01*
X313624060Y-158188685D02*
X313766917Y-158474400D01*
X313766917Y-158474400D02*
X313766917Y-159045828D01*
X313766917Y-159045828D02*
X313624060Y-159331542D01*
X313624060Y-159331542D02*
X313481203Y-159474400D01*
X313481203Y-159474400D02*
X313195488Y-159617257D01*
X313195488Y-159617257D02*
X312624060Y-159617257D01*
X312624060Y-159617257D02*
X312338346Y-159474400D01*
X312338346Y-159474400D02*
X312195488Y-159331542D01*
X312195488Y-159331542D02*
X312052631Y-159045828D01*
X312052631Y-159045828D02*
X312052631Y-158474400D01*
X312052631Y-158474400D02*
X312195488Y-158188685D01*
X312195488Y-158188685D02*
X312338346Y-158045828D01*
X312338346Y-158045828D02*
X312624060Y-157902971D01*
X307481203Y-158045828D02*
X307052631Y-158188685D01*
X307052631Y-158188685D02*
X306909774Y-158331542D01*
X306909774Y-158331542D02*
X306766917Y-158617257D01*
X306766917Y-158617257D02*
X306766917Y-159045828D01*
X306766917Y-159045828D02*
X306909774Y-159331542D01*
X306909774Y-159331542D02*
X307052631Y-159474400D01*
X307052631Y-159474400D02*
X307338346Y-159617257D01*
X307338346Y-159617257D02*
X308481203Y-159617257D01*
X308481203Y-159617257D02*
X308481203Y-156617257D01*
X308481203Y-156617257D02*
X307481203Y-156617257D01*
X307481203Y-156617257D02*
X307195489Y-156760114D01*
X307195489Y-156760114D02*
X307052631Y-156902971D01*
X307052631Y-156902971D02*
X306909774Y-157188685D01*
X306909774Y-157188685D02*
X306909774Y-157474400D01*
X306909774Y-157474400D02*
X307052631Y-157760114D01*
X307052631Y-157760114D02*
X307195489Y-157902971D01*
X307195489Y-157902971D02*
X307481203Y-158045828D01*
X307481203Y-158045828D02*
X308481203Y-158045828D01*
X305052631Y-159617257D02*
X305338346Y-159474400D01*
X305338346Y-159474400D02*
X305481203Y-159331542D01*
X305481203Y-159331542D02*
X305624060Y-159045828D01*
X305624060Y-159045828D02*
X305624060Y-158188685D01*
X305624060Y-158188685D02*
X305481203Y-157902971D01*
X305481203Y-157902971D02*
X305338346Y-157760114D01*
X305338346Y-157760114D02*
X305052631Y-157617257D01*
X305052631Y-157617257D02*
X304624060Y-157617257D01*
X304624060Y-157617257D02*
X304338346Y-157760114D01*
X304338346Y-157760114D02*
X304195489Y-157902971D01*
X304195489Y-157902971D02*
X304052631Y-158188685D01*
X304052631Y-158188685D02*
X304052631Y-159045828D01*
X304052631Y-159045828D02*
X304195489Y-159331542D01*
X304195489Y-159331542D02*
X304338346Y-159474400D01*
X304338346Y-159474400D02*
X304624060Y-159617257D01*
X304624060Y-159617257D02*
X305052631Y-159617257D01*
X301481203Y-159617257D02*
X301481203Y-158045828D01*
X301481203Y-158045828D02*
X301624060Y-157760114D01*
X301624060Y-157760114D02*
X301909774Y-157617257D01*
X301909774Y-157617257D02*
X302481203Y-157617257D01*
X302481203Y-157617257D02*
X302766917Y-157760114D01*
X301481203Y-159474400D02*
X301766917Y-159617257D01*
X301766917Y-159617257D02*
X302481203Y-159617257D01*
X302481203Y-159617257D02*
X302766917Y-159474400D01*
X302766917Y-159474400D02*
X302909774Y-159188685D01*
X302909774Y-159188685D02*
X302909774Y-158902971D01*
X302909774Y-158902971D02*
X302766917Y-158617257D01*
X302766917Y-158617257D02*
X302481203Y-158474400D01*
X302481203Y-158474400D02*
X301766917Y-158474400D01*
X301766917Y-158474400D02*
X301481203Y-158331542D01*
X300052631Y-159617257D02*
X300052631Y-157617257D01*
X300052631Y-158188685D02*
X299909774Y-157902971D01*
X299909774Y-157902971D02*
X299766917Y-157760114D01*
X299766917Y-157760114D02*
X299481202Y-157617257D01*
X299481202Y-157617257D02*
X299195488Y-157617257D01*
X296909774Y-159617257D02*
X296909774Y-156617257D01*
X296909774Y-159474400D02*
X297195488Y-159617257D01*
X297195488Y-159617257D02*
X297766916Y-159617257D01*
X297766916Y-159617257D02*
X298052631Y-159474400D01*
X298052631Y-159474400D02*
X298195488Y-159331542D01*
X298195488Y-159331542D02*
X298338345Y-159045828D01*
X298338345Y-159045828D02*
X298338345Y-158188685D01*
X298338345Y-158188685D02*
X298195488Y-157902971D01*
X298195488Y-157902971D02*
X298052631Y-157760114D01*
X298052631Y-157760114D02*
X297766916Y-157617257D01*
X297766916Y-157617257D02*
X297195488Y-157617257D01*
X297195488Y-157617257D02*
X296909774Y-157760114D01*
X293624059Y-156617257D02*
X292624059Y-159617257D01*
X292624059Y-159617257D02*
X291624059Y-156617257D01*
X289052630Y-159617257D02*
X290766916Y-159617257D01*
X289909773Y-159617257D02*
X289909773Y-156617257D01*
X289909773Y-156617257D02*
X290195487Y-157045828D01*
X290195487Y-157045828D02*
X290481202Y-157331542D01*
X290481202Y-157331542D02*
X290766916Y-157474400D01*
%LPC*%
D11*
X274750000Y-176750000D03*
X274750000Y-171250000D03*
X274750000Y-165500000D03*
D12*
X290180000Y-164130000D03*
X290180000Y-169210000D03*
X290190000Y-166670000D03*
X290190000Y-171750000D03*
X290190000Y-174290000D03*
X290200000Y-176830000D03*
X290210000Y-179370000D03*
X290220000Y-181910000D03*
X307960000Y-164170000D03*
X307960000Y-169250000D03*
X307970000Y-166710000D03*
X307970000Y-171790000D03*
X307970000Y-174330000D03*
X307980000Y-176870000D03*
X307990000Y-179410000D03*
X308000000Y-181950000D03*
X323200000Y-164200000D03*
X323200000Y-169280000D03*
X323210000Y-166740000D03*
X323210000Y-171820000D03*
X323210000Y-174360000D03*
X323220000Y-176900000D03*
X323230000Y-179440000D03*
X323240000Y-181980000D03*
X338440000Y-164200000D03*
X338440000Y-169280000D03*
X338450000Y-166740000D03*
X338450000Y-171820000D03*
X338450000Y-174360000D03*
X338460000Y-176900000D03*
X338470000Y-179440000D03*
X338480000Y-181980000D03*
X292720000Y-164130000D03*
X292720000Y-169210000D03*
X292730000Y-166670000D03*
X292730000Y-171750000D03*
X292730000Y-174290000D03*
X292740000Y-176830000D03*
X292750000Y-179370000D03*
X292760000Y-181910000D03*
X310500000Y-164170000D03*
X310500000Y-169250000D03*
X310510000Y-166710000D03*
X310510000Y-171790000D03*
X310510000Y-174330000D03*
X310520000Y-176870000D03*
X310530000Y-179410000D03*
X310540000Y-181950000D03*
X325740000Y-164200000D03*
X325740000Y-169280000D03*
X325750000Y-166740000D03*
X325750000Y-171820000D03*
X325750000Y-174360000D03*
X325760000Y-176900000D03*
X325770000Y-179440000D03*
X325780000Y-181980000D03*
X295260000Y-164130000D03*
X295260000Y-169210000D03*
X295270000Y-166670000D03*
X295270000Y-171750000D03*
X295270000Y-174290000D03*
X295280000Y-176830000D03*
X295290000Y-179370000D03*
X295300000Y-181910000D03*
X313040000Y-164170000D03*
X313040000Y-169250000D03*
X313050000Y-166710000D03*
X313050000Y-171790000D03*
X313050000Y-174330000D03*
X313060000Y-176870000D03*
X313070000Y-179410000D03*
X313080000Y-181950000D03*
X328280000Y-164200000D03*
X328280000Y-169280000D03*
X328290000Y-166740000D03*
X328290000Y-171820000D03*
X328290000Y-174360000D03*
X328300000Y-176900000D03*
X328310000Y-179440000D03*
X328320000Y-181980000D03*
X287640000Y-164130000D03*
X287640000Y-169210000D03*
X287650000Y-166670000D03*
X287650000Y-171750000D03*
X287650000Y-174290000D03*
X287660000Y-176830000D03*
X287670000Y-179370000D03*
X287680000Y-181910000D03*
X305420000Y-164170000D03*
X305420000Y-169250000D03*
X305430000Y-166710000D03*
X305430000Y-171790000D03*
X305430000Y-174330000D03*
X305440000Y-176870000D03*
X305450000Y-179410000D03*
X305460000Y-181950000D03*
X320660000Y-164200000D03*
X320660000Y-169280000D03*
X320670000Y-166740000D03*
X320670000Y-171820000D03*
X320670000Y-174360000D03*
X320680000Y-176900000D03*
X320690000Y-179440000D03*
X320700000Y-181980000D03*
X335900000Y-164200000D03*
X335900000Y-169280000D03*
X335910000Y-166740000D03*
X335910000Y-171820000D03*
X335910000Y-174360000D03*
X335920000Y-176900000D03*
X335930000Y-179440000D03*
X335940000Y-181980000D03*
X297800000Y-164130000D03*
X297800000Y-169210000D03*
X297810000Y-166670000D03*
X297810000Y-171750000D03*
X297810000Y-174290000D03*
X297820000Y-176830000D03*
X297830000Y-179370000D03*
X297840000Y-181910000D03*
X315580000Y-164170000D03*
X315580000Y-169250000D03*
X315590000Y-166710000D03*
X315590000Y-171790000D03*
X315590000Y-174330000D03*
X315600000Y-176870000D03*
X315610000Y-179410000D03*
X315620000Y-181950000D03*
X330820000Y-164200000D03*
X330820000Y-169280000D03*
X330830000Y-166740000D03*
X330830000Y-171820000D03*
X330830000Y-174360000D03*
X330840000Y-176900000D03*
X330850000Y-179440000D03*
X330860000Y-181980000D03*
X285100000Y-164130000D03*
X285100000Y-169210000D03*
X285110000Y-166670000D03*
X285110000Y-171750000D03*
X285110000Y-174290000D03*
X285120000Y-176830000D03*
X285130000Y-179370000D03*
X285140000Y-181910000D03*
X300340000Y-164160000D03*
X300340000Y-169240000D03*
X300350000Y-166700000D03*
X300350000Y-171780000D03*
X300350000Y-174320000D03*
X300360000Y-176860000D03*
X300370000Y-179400000D03*
X300380000Y-181940000D03*
X302880000Y-164170000D03*
X302880000Y-169250000D03*
X302890000Y-166710000D03*
X302890000Y-171790000D03*
X302890000Y-174330000D03*
X302900000Y-176870000D03*
X302910000Y-179410000D03*
X302920000Y-181950000D03*
X318120000Y-164200000D03*
X318120000Y-169280000D03*
X318130000Y-166740000D03*
X318130000Y-171820000D03*
X318130000Y-174360000D03*
X318140000Y-176900000D03*
X318150000Y-179440000D03*
X318160000Y-181980000D03*
X333360000Y-164200000D03*
X333360000Y-169280000D03*
X333370000Y-166740000D03*
X333370000Y-171820000D03*
X333370000Y-174360000D03*
X333380000Y-176900000D03*
X333390000Y-179440000D03*
X333400000Y-181980000D03*
D13*
X349750000Y-180250000D03*
X349750000Y-103500000D03*
X264000000Y-180250000D03*
X264000000Y-103500000D03*
D14*
X263745000Y-130500000D03*
D15*
X261205000Y-130500000D03*
D16*
X349250000Y-123710000D03*
D17*
X349250000Y-126250000D03*
X349250000Y-128790000D03*
D18*
X294940000Y-135440000D03*
D19*
X294940000Y-137980000D03*
X294940000Y-140520000D03*
X294940000Y-143060000D03*
X302560000Y-143060000D03*
X302560000Y-140520000D03*
X302560000Y-137980000D03*
X302560000Y-135440000D03*
X334060000Y-134880000D03*
X334060000Y-137420000D03*
X334060000Y-139960000D03*
X334060000Y-142500000D03*
X326440000Y-142500000D03*
X326440000Y-139960000D03*
X326440000Y-137420000D03*
D18*
X326440000Y-134880000D03*
D20*
X283500000Y-134420000D03*
D21*
X283500000Y-144580000D03*
D20*
X293670000Y-127500000D03*
D21*
X303830000Y-127500000D03*
D20*
X289500000Y-134420000D03*
D21*
X289500000Y-144580000D03*
D20*
X308500000Y-117830000D03*
D21*
X308500000Y-107670000D03*
D20*
X302000000Y-117830000D03*
D21*
X302000000Y-107670000D03*
D20*
X295500000Y-117830000D03*
D21*
X295500000Y-107670000D03*
D20*
X289000000Y-107690000D03*
D21*
X289000000Y-117850000D03*
D20*
X320500000Y-143770000D03*
D21*
X320500000Y-133610000D03*
D20*
X325170000Y-126940000D03*
D21*
X335330000Y-126940000D03*
D20*
X340000000Y-116940000D03*
D21*
X340000000Y-106780000D03*
D20*
X333500000Y-116940000D03*
D21*
X333500000Y-106780000D03*
D20*
X320250000Y-106780000D03*
D21*
X320250000Y-116940000D03*
D20*
X327000000Y-116940000D03*
D21*
X327000000Y-106780000D03*
D22*
X302290000Y-102195000D03*
D23*
X304830000Y-102195000D03*
X307370000Y-102195000D03*
D22*
X290250000Y-102195000D03*
D23*
X292790000Y-102195000D03*
X295330000Y-102195000D03*
X339080000Y-102140000D03*
X336540000Y-102140000D03*
D22*
X334000000Y-102140000D03*
D23*
X326540000Y-102135000D03*
X324000000Y-102135000D03*
D22*
X321460000Y-102135000D03*
D16*
X272670000Y-104750000D03*
D17*
X275210000Y-104750000D03*
X277750000Y-104750000D03*
D20*
X311750000Y-103000000D03*
X311750000Y-100500000D03*
X285750000Y-103000000D03*
X285750000Y-100500000D03*
X343500000Y-103000000D03*
X343500000Y-100500000D03*
X317000000Y-103000000D03*
X317000000Y-100500000D03*
X329000000Y-150190000D03*
X331500000Y-150190000D03*
X338750000Y-137440000D03*
X338750000Y-134940000D03*
X297500000Y-150750000D03*
X300000000Y-150750000D03*
X307000000Y-138000000D03*
X307000000Y-135500000D03*
X297500000Y-121500000D03*
X300000000Y-121500000D03*
X331500000Y-120690000D03*
X329000000Y-120690000D03*
D24*
X272882323Y-129500000D03*
D25*
X277882323Y-129500000D03*
D24*
X277750000Y-115750000D03*
D25*
X272750000Y-115750000D03*
D26*
X219925000Y-152523536D03*
X218655000Y-151253536D03*
D27*
X217385000Y-152523536D03*
D20*
X176260000Y-167388536D03*
X176260000Y-164888536D03*
D21*
X165610000Y-110578536D03*
D20*
X155450000Y-110578536D03*
D21*
X217155000Y-133273536D03*
D20*
X206995000Y-133273536D03*
D21*
X217155000Y-145773536D03*
D20*
X206995000Y-145773536D03*
X97570000Y-169578536D03*
X100070000Y-169578536D03*
D21*
X90280000Y-147488536D03*
D20*
X90280000Y-137328536D03*
X152320000Y-162828536D03*
X154820000Y-162828536D03*
D21*
X144450000Y-168828536D03*
D20*
X154610000Y-168828536D03*
D21*
X173450000Y-133328536D03*
D20*
X183610000Y-133328536D03*
D13*
X192750000Y-103500000D03*
D20*
X100070000Y-151578536D03*
X97570000Y-151578536D03*
D11*
X81280000Y-123078536D03*
D12*
X251200000Y-119728536D03*
X251190000Y-117188536D03*
X251180000Y-114648536D03*
X251170000Y-112108536D03*
X251170000Y-109568536D03*
X251170000Y-104488536D03*
X251160000Y-107028536D03*
X251160000Y-101948536D03*
X235960000Y-119728536D03*
X235950000Y-117188536D03*
X235940000Y-114648536D03*
X235930000Y-112108536D03*
X235930000Y-109568536D03*
X235930000Y-104488536D03*
X235920000Y-107028536D03*
X235920000Y-101948536D03*
X220720000Y-119698536D03*
X220710000Y-117158536D03*
X220700000Y-114618536D03*
X220690000Y-112078536D03*
X220690000Y-109538536D03*
X220690000Y-104458536D03*
X220680000Y-106998536D03*
X220680000Y-101918536D03*
X218180000Y-119688536D03*
X218170000Y-117148536D03*
X218160000Y-114608536D03*
X218150000Y-112068536D03*
X218150000Y-109528536D03*
X218150000Y-104448536D03*
X218140000Y-106988536D03*
X218140000Y-101908536D03*
X202940000Y-119658536D03*
X202930000Y-117118536D03*
X202920000Y-114578536D03*
X202910000Y-112038536D03*
X202910000Y-109498536D03*
X202910000Y-104418536D03*
X202900000Y-106958536D03*
X202900000Y-101878536D03*
X248660000Y-119728536D03*
X248650000Y-117188536D03*
X248640000Y-114648536D03*
X248630000Y-112108536D03*
X248630000Y-109568536D03*
X248630000Y-104488536D03*
X248620000Y-107028536D03*
X248620000Y-101948536D03*
X233420000Y-119698536D03*
X233410000Y-117158536D03*
X233400000Y-114618536D03*
X233390000Y-112078536D03*
X233390000Y-109538536D03*
X233390000Y-104458536D03*
X233380000Y-106998536D03*
X233380000Y-101918536D03*
X215640000Y-119658536D03*
X215630000Y-117118536D03*
X215620000Y-114578536D03*
X215610000Y-112038536D03*
X215610000Y-109498536D03*
X215610000Y-104418536D03*
X215600000Y-106958536D03*
X215600000Y-101878536D03*
X253740000Y-119728536D03*
X253730000Y-117188536D03*
X253720000Y-114648536D03*
X253710000Y-112108536D03*
X253710000Y-109568536D03*
X253710000Y-104488536D03*
X253700000Y-107028536D03*
X253700000Y-101948536D03*
X238500000Y-119728536D03*
X238490000Y-117188536D03*
X238480000Y-114648536D03*
X238470000Y-112108536D03*
X238470000Y-109568536D03*
X238470000Y-104488536D03*
X238460000Y-107028536D03*
X238460000Y-101948536D03*
X223260000Y-119698536D03*
X223250000Y-117158536D03*
X223240000Y-114618536D03*
X223230000Y-112078536D03*
X223230000Y-109538536D03*
X223230000Y-104458536D03*
X223220000Y-106998536D03*
X223220000Y-101918536D03*
X205480000Y-119658536D03*
X205470000Y-117118536D03*
X205460000Y-114578536D03*
X205450000Y-112038536D03*
X205450000Y-109498536D03*
X205450000Y-104418536D03*
X205440000Y-106958536D03*
X205440000Y-101878536D03*
X246120000Y-119728536D03*
X246110000Y-117188536D03*
X246100000Y-114648536D03*
X246090000Y-112108536D03*
X246090000Y-109568536D03*
X246090000Y-104488536D03*
X246080000Y-107028536D03*
X246080000Y-101948536D03*
X230880000Y-119698536D03*
X230870000Y-117158536D03*
X230860000Y-114618536D03*
X230850000Y-112078536D03*
X230850000Y-109538536D03*
X230850000Y-104458536D03*
X230840000Y-106998536D03*
X230840000Y-101918536D03*
X213100000Y-119658536D03*
X213090000Y-117118536D03*
X213080000Y-114578536D03*
X213070000Y-112038536D03*
X213070000Y-109498536D03*
X213070000Y-104418536D03*
X213060000Y-106958536D03*
X213060000Y-101878536D03*
X243580000Y-119728536D03*
X243570000Y-117188536D03*
X243560000Y-114648536D03*
X243550000Y-112108536D03*
X243550000Y-109568536D03*
X243550000Y-104488536D03*
X243540000Y-107028536D03*
X243540000Y-101948536D03*
X228340000Y-119698536D03*
X228330000Y-117158536D03*
X228320000Y-114618536D03*
X228310000Y-112078536D03*
X228310000Y-109538536D03*
X228310000Y-104458536D03*
X228300000Y-106998536D03*
X228300000Y-101918536D03*
X210560000Y-119658536D03*
X210550000Y-117118536D03*
X210540000Y-114578536D03*
X210530000Y-112038536D03*
X210530000Y-109498536D03*
X210530000Y-104418536D03*
X210520000Y-106958536D03*
X210520000Y-101878536D03*
X256280000Y-119728536D03*
X256270000Y-117188536D03*
X256260000Y-114648536D03*
X256250000Y-112108536D03*
X256250000Y-109568536D03*
X256250000Y-104488536D03*
X256240000Y-107028536D03*
X256240000Y-101948536D03*
X241040000Y-119728536D03*
X241030000Y-117188536D03*
X241020000Y-114648536D03*
X241010000Y-112108536D03*
X241010000Y-109568536D03*
X241010000Y-104488536D03*
X241000000Y-107028536D03*
X241000000Y-101948536D03*
X225800000Y-119698536D03*
X225790000Y-117158536D03*
X225780000Y-114618536D03*
X225770000Y-112078536D03*
X225770000Y-109538536D03*
X225770000Y-104458536D03*
X225760000Y-106998536D03*
X225760000Y-101918536D03*
X208020000Y-119658536D03*
X208010000Y-117118536D03*
X208000000Y-114578536D03*
X207990000Y-112038536D03*
X207990000Y-109498536D03*
X207990000Y-104418536D03*
X207980000Y-106958536D03*
X207980000Y-101878536D03*
D20*
X121070000Y-159828536D03*
X121070000Y-162328536D03*
D21*
X169150000Y-144578536D03*
D20*
X158990000Y-144578536D03*
D21*
X150280000Y-136158536D03*
D20*
X150280000Y-125998536D03*
D28*
X200030000Y-139288536D03*
X200030000Y-141828536D03*
X200030000Y-144368536D03*
D11*
X197120000Y-105228536D03*
D21*
X183860000Y-103578536D03*
D20*
X173700000Y-103578536D03*
D15*
X177315000Y-144153536D03*
D14*
X179855000Y-144153536D03*
D21*
X112450000Y-129328536D03*
D20*
X122610000Y-129328536D03*
D21*
X122610000Y-135828536D03*
D20*
X112450000Y-135828536D03*
D21*
X230315000Y-139423536D03*
D20*
X220155000Y-139423536D03*
X127280000Y-126078536D03*
X127280000Y-123578536D03*
D21*
X165610000Y-117078536D03*
D20*
X155450000Y-117078536D03*
D12*
X168860000Y-174578536D03*
X166320000Y-174578536D03*
X163780000Y-174578536D03*
D20*
X251905000Y-144523536D03*
X251905000Y-142023536D03*
D25*
X107280000Y-176828536D03*
D24*
X107280000Y-181828536D03*
D11*
X81280000Y-112078536D03*
D21*
X140860000Y-139578536D03*
D20*
X130700000Y-139578536D03*
D11*
X197870000Y-174488536D03*
D19*
X133320000Y-152288536D03*
X133320000Y-154828536D03*
X133320000Y-157368536D03*
X133320000Y-159908536D03*
X133320000Y-162448536D03*
X133320000Y-164988536D03*
X133320000Y-167528536D03*
X125700000Y-167528536D03*
X125700000Y-164988536D03*
X125700000Y-162448536D03*
X125700000Y-159908536D03*
X125700000Y-157368536D03*
X125700000Y-154828536D03*
D18*
X125700000Y-152288536D03*
D20*
X230405000Y-152273536D03*
X230405000Y-149773536D03*
D21*
X112450000Y-110328536D03*
D20*
X122610000Y-110328536D03*
D21*
X230465000Y-133273536D03*
D20*
X220305000Y-133273536D03*
D13*
X81250000Y-103500000D03*
D21*
X90280000Y-124668536D03*
D20*
X90280000Y-134828536D03*
D29*
X102840000Y-132268536D03*
X102840000Y-134808536D03*
X102840000Y-137348536D03*
X102840000Y-139888536D03*
X95220000Y-139888536D03*
X95220000Y-137348536D03*
X95220000Y-134808536D03*
D30*
X95220000Y-132268536D03*
D12*
X251250000Y-181978536D03*
X251240000Y-179438536D03*
X251230000Y-176898536D03*
X251220000Y-174358536D03*
X251220000Y-171818536D03*
X251220000Y-166738536D03*
X251210000Y-169278536D03*
X251210000Y-164198536D03*
X236010000Y-181978536D03*
X236000000Y-179438536D03*
X235990000Y-176898536D03*
X235980000Y-174358536D03*
X235980000Y-171818536D03*
X235980000Y-166738536D03*
X235970000Y-169278536D03*
X235970000Y-164198536D03*
X220770000Y-181948536D03*
X220760000Y-179408536D03*
X220750000Y-176868536D03*
X220740000Y-174328536D03*
X220740000Y-171788536D03*
X220740000Y-166708536D03*
X220730000Y-169248536D03*
X220730000Y-164168536D03*
X218230000Y-181938536D03*
X218220000Y-179398536D03*
X218210000Y-176858536D03*
X218200000Y-174318536D03*
X218200000Y-171778536D03*
X218200000Y-166698536D03*
X218190000Y-169238536D03*
X218190000Y-164158536D03*
X202990000Y-181908536D03*
X202980000Y-179368536D03*
X202970000Y-176828536D03*
X202960000Y-174288536D03*
X202960000Y-171748536D03*
X202960000Y-166668536D03*
X202950000Y-169208536D03*
X202950000Y-164128536D03*
X248710000Y-181978536D03*
X248700000Y-179438536D03*
X248690000Y-176898536D03*
X248680000Y-174358536D03*
X248680000Y-171818536D03*
X248680000Y-166738536D03*
X248670000Y-169278536D03*
X248670000Y-164198536D03*
X233470000Y-181948536D03*
X233460000Y-179408536D03*
X233450000Y-176868536D03*
X233440000Y-174328536D03*
X233440000Y-171788536D03*
X233440000Y-166708536D03*
X233430000Y-169248536D03*
X233430000Y-164168536D03*
X215690000Y-181908536D03*
X215680000Y-179368536D03*
X215670000Y-176828536D03*
X215660000Y-174288536D03*
X215660000Y-171748536D03*
X215660000Y-166668536D03*
X215650000Y-169208536D03*
X215650000Y-164128536D03*
X253790000Y-181978536D03*
X253780000Y-179438536D03*
X253770000Y-176898536D03*
X253760000Y-174358536D03*
X253760000Y-171818536D03*
X253760000Y-166738536D03*
X253750000Y-169278536D03*
X253750000Y-164198536D03*
X238550000Y-181978536D03*
X238540000Y-179438536D03*
X238530000Y-176898536D03*
X238520000Y-174358536D03*
X238520000Y-171818536D03*
X238520000Y-166738536D03*
X238510000Y-169278536D03*
X238510000Y-164198536D03*
X223310000Y-181948536D03*
X223300000Y-179408536D03*
X223290000Y-176868536D03*
X223280000Y-174328536D03*
X223280000Y-171788536D03*
X223280000Y-166708536D03*
X223270000Y-169248536D03*
X223270000Y-164168536D03*
X205530000Y-181908536D03*
X205520000Y-179368536D03*
X205510000Y-176828536D03*
X205500000Y-174288536D03*
X205500000Y-171748536D03*
X205500000Y-166668536D03*
X205490000Y-169208536D03*
X205490000Y-164128536D03*
X246170000Y-181978536D03*
X246160000Y-179438536D03*
X246150000Y-176898536D03*
X246140000Y-174358536D03*
X246140000Y-171818536D03*
X246140000Y-166738536D03*
X246130000Y-169278536D03*
X246130000Y-164198536D03*
X230930000Y-181948536D03*
X230920000Y-179408536D03*
X230910000Y-176868536D03*
X230900000Y-174328536D03*
X230900000Y-171788536D03*
X230900000Y-166708536D03*
X230890000Y-169248536D03*
X230890000Y-164168536D03*
X213150000Y-181908536D03*
X213140000Y-179368536D03*
X213130000Y-176828536D03*
X213120000Y-174288536D03*
X213120000Y-171748536D03*
X213120000Y-166668536D03*
X213110000Y-169208536D03*
X213110000Y-164128536D03*
X243630000Y-181978536D03*
X243620000Y-179438536D03*
X243610000Y-176898536D03*
X243600000Y-174358536D03*
X243600000Y-171818536D03*
X243600000Y-166738536D03*
X243590000Y-169278536D03*
X243590000Y-164198536D03*
X228390000Y-181948536D03*
X228380000Y-179408536D03*
X228370000Y-176868536D03*
X228360000Y-174328536D03*
X228360000Y-171788536D03*
X228360000Y-166708536D03*
X228350000Y-169248536D03*
X228350000Y-164168536D03*
X210610000Y-181908536D03*
X210600000Y-179368536D03*
X210590000Y-176828536D03*
X210580000Y-174288536D03*
X210580000Y-171748536D03*
X210580000Y-166668536D03*
X210570000Y-169208536D03*
X210570000Y-164128536D03*
X256330000Y-181978536D03*
X256320000Y-179438536D03*
X256310000Y-176898536D03*
X256300000Y-174358536D03*
X256300000Y-171818536D03*
X256300000Y-166738536D03*
X256290000Y-169278536D03*
X256290000Y-164198536D03*
X241090000Y-181978536D03*
X241080000Y-179438536D03*
X241070000Y-176898536D03*
X241060000Y-174358536D03*
X241060000Y-171818536D03*
X241060000Y-166738536D03*
X241050000Y-169278536D03*
X241050000Y-164198536D03*
X225850000Y-181948536D03*
X225840000Y-179408536D03*
X225830000Y-176868536D03*
X225820000Y-174328536D03*
X225820000Y-171788536D03*
X225820000Y-166708536D03*
X225810000Y-169248536D03*
X225810000Y-164168536D03*
X208070000Y-181908536D03*
X208060000Y-179368536D03*
X208050000Y-176828536D03*
X208040000Y-174288536D03*
X208040000Y-171748536D03*
X208040000Y-166668536D03*
X208030000Y-169208536D03*
X208030000Y-164128536D03*
D20*
X170090000Y-119388536D03*
X170090000Y-116888536D03*
D21*
X116650000Y-157328536D03*
D20*
X106490000Y-157328536D03*
D12*
X101610000Y-123828536D03*
X99070000Y-123828536D03*
X96530000Y-123828536D03*
D20*
X106780000Y-132328536D03*
X106780000Y-134828536D03*
D21*
X230315000Y-145773536D03*
D20*
X220155000Y-145773536D03*
D11*
X197250000Y-116578536D03*
D21*
X251905000Y-137203536D03*
D20*
X251905000Y-127043536D03*
X112820000Y-151578536D03*
X110320000Y-151578536D03*
D19*
X139590000Y-110708536D03*
X139590000Y-113248536D03*
X139590000Y-115788536D03*
X139590000Y-118328536D03*
X139590000Y-120868536D03*
X139590000Y-123408536D03*
X139590000Y-125948536D03*
X131970000Y-125948536D03*
X131970000Y-123408536D03*
X131970000Y-120868536D03*
X131970000Y-118328536D03*
X131970000Y-115788536D03*
X131970000Y-113248536D03*
D18*
X131970000Y-110708536D03*
D20*
X112820000Y-169578536D03*
X110320000Y-169578536D03*
D21*
X144490000Y-150828536D03*
D20*
X154650000Y-150828536D03*
X127280000Y-118328536D03*
X127280000Y-120828536D03*
D12*
X164610000Y-135078536D03*
X162070000Y-135078536D03*
X159530000Y-135078536D03*
D21*
X140860000Y-104078536D03*
D20*
X130700000Y-104078536D03*
D19*
X247025000Y-134323536D03*
X247025000Y-136863536D03*
X247025000Y-139403536D03*
X247025000Y-141943536D03*
X247025000Y-144483536D03*
X247025000Y-147023536D03*
X247025000Y-149563536D03*
X239405000Y-149563536D03*
X239405000Y-147023536D03*
X239405000Y-144483536D03*
X239405000Y-141943536D03*
X239405000Y-139403536D03*
X239405000Y-136863536D03*
D18*
X239405000Y-134323536D03*
D12*
X168860000Y-158328536D03*
X166320000Y-158328536D03*
X163780000Y-158328536D03*
D20*
X144150000Y-162828536D03*
X146650000Y-162828536D03*
D21*
X183610000Y-126828536D03*
D20*
X173450000Y-126828536D03*
D19*
X182400000Y-111578536D03*
X182400000Y-114118536D03*
X182400000Y-116658536D03*
X182400000Y-119198536D03*
X174780000Y-119198536D03*
X174780000Y-116658536D03*
X174780000Y-114118536D03*
D18*
X174780000Y-111578536D03*
D21*
X140860000Y-133078536D03*
D20*
X130700000Y-133078536D03*
X152320000Y-156828536D03*
X154820000Y-156828536D03*
D17*
X83030000Y-137328536D03*
D16*
X83030000Y-134788536D03*
D21*
X165610000Y-123578536D03*
D20*
X155450000Y-123578536D03*
D11*
X197130000Y-110908536D03*
D21*
X122610000Y-116578536D03*
D20*
X112450000Y-116578536D03*
D11*
X81280000Y-117578536D03*
D21*
X220325000Y-127023536D03*
D20*
X230485000Y-127023536D03*
D21*
X122610000Y-123078536D03*
D20*
X112450000Y-123078536D03*
D12*
X98140000Y-114528536D03*
X98130000Y-111988536D03*
X98130000Y-109448536D03*
X98130000Y-104368536D03*
X98120000Y-106908536D03*
X98120000Y-101828536D03*
X95600000Y-114518536D03*
X95590000Y-111978536D03*
X95590000Y-109438536D03*
X95590000Y-104358536D03*
X95580000Y-106898536D03*
X95580000Y-101818536D03*
X93060000Y-114488536D03*
X93050000Y-111948536D03*
X93050000Y-109408536D03*
X93050000Y-104328536D03*
X93040000Y-106868536D03*
X93040000Y-101788536D03*
X100680000Y-114528536D03*
X100670000Y-111988536D03*
X100670000Y-109448536D03*
X100670000Y-104368536D03*
X100660000Y-106908536D03*
X100660000Y-101828536D03*
X108300000Y-114528536D03*
X108290000Y-111988536D03*
X108290000Y-109448536D03*
X108290000Y-104368536D03*
X108280000Y-106908536D03*
X108280000Y-101828536D03*
X90520000Y-114488536D03*
X90510000Y-111948536D03*
X90510000Y-109408536D03*
X90510000Y-104328536D03*
X90500000Y-106868536D03*
X90500000Y-101788536D03*
X105760000Y-114528536D03*
X105750000Y-111988536D03*
X105750000Y-109448536D03*
X105750000Y-104368536D03*
X105740000Y-106908536D03*
X105740000Y-101828536D03*
X87980000Y-114488536D03*
X87970000Y-111948536D03*
X87970000Y-109408536D03*
X87970000Y-104328536D03*
X87960000Y-106868536D03*
X87960000Y-101788536D03*
X103220000Y-114528536D03*
X103210000Y-111988536D03*
X103210000Y-109448536D03*
X103210000Y-104368536D03*
X103200000Y-106908536D03*
X103200000Y-101828536D03*
D20*
X97780000Y-144078536D03*
X95280000Y-144078536D03*
X193010000Y-162388536D03*
X193010000Y-159888536D03*
X144280000Y-126078536D03*
X144280000Y-123578536D03*
D21*
X150280000Y-123408536D03*
D20*
X150280000Y-113248536D03*
D25*
X94030000Y-176828536D03*
D24*
X94030000Y-181828536D03*
D20*
X144280000Y-118328536D03*
X144280000Y-120828536D03*
D19*
X188380000Y-159768536D03*
X188380000Y-162308536D03*
X188380000Y-164848536D03*
X188380000Y-167388536D03*
X180760000Y-167388536D03*
X180760000Y-164848536D03*
X180760000Y-162308536D03*
D18*
X180760000Y-159768536D03*
D13*
X192750000Y-180250000D03*
D20*
X187090000Y-111888536D03*
X187090000Y-109388536D03*
D21*
X189590000Y-151888536D03*
D20*
X179430000Y-151888536D03*
D21*
X103820000Y-163578536D03*
D20*
X93660000Y-163578536D03*
D21*
X103820000Y-157328536D03*
D20*
X93660000Y-157328536D03*
D21*
X116650000Y-163578536D03*
D20*
X106490000Y-163578536D03*
D21*
X217155000Y-139423536D03*
D20*
X206995000Y-139423536D03*
D13*
X81250000Y-180250000D03*
D31*
X246960000Y-156023536D03*
D32*
X239340000Y-156023536D03*
D15*
X177315000Y-141553536D03*
D14*
X179855000Y-141553536D03*
D21*
X248235000Y-127023536D03*
D20*
X238075000Y-127023536D03*
D17*
X82920000Y-155068536D03*
X82920000Y-152528536D03*
D16*
X82920000Y-149988536D03*
D21*
X154650000Y-144578536D03*
D20*
X144490000Y-144578536D03*
X138070000Y-162328536D03*
X138070000Y-159828536D03*
D11*
X197920000Y-180248536D03*
X197800000Y-169168536D03*
D21*
X144490000Y-174828536D03*
D20*
X154650000Y-174828536D03*
X144070000Y-156828536D03*
X146570000Y-156828536D03*
X234655000Y-144523536D03*
X234655000Y-142023536D03*
D21*
X134650000Y-174578536D03*
D20*
X124490000Y-174578536D03*
%LPD*%
M02*
