M48
; DRILL file {KiCad 8.0.4} date 2024-09-14T23:49:13-0400
; FORMAT={-:-/ absolute / metric / decimal}
; #@! TF.CreationDate,2024-09-14T23:49:13-04:00
; #@! TF.GenerationSoftware,Kicad,Pcbnew,8.0.4
; #@! TF.FileFunction,Plated,1,2,PTH
FMAT,2
METRIC
; #@! TA.AperFunction,Plated,PTH,ViaDrill
T1C0.300
; #@! TA.AperFunction,Plated,PTH,ComponentDrill
T2C0.700
; #@! TA.AperFunction,Plated,PTH,ComponentDrill
T3C0.750
; #@! TA.AperFunction,Plated,PTH,ComponentDrill
T4C0.762
; #@! TA.AperFunction,Plated,PTH,ComponentDrill
T5C0.800
; #@! TA.AperFunction,Plated,PTH,ComponentDrill
T6C0.864
; #@! TA.AperFunction,Plated,PTH,ComponentDrill
T7C1.000
; #@! TA.AperFunction,Plated,PTH,ComponentDrill
T8C1.100
; #@! TA.AperFunction,Plated,PTH,ComponentDrill
T9C3.200
%
G90
G05
T1
X78.28Y-116.829
X78.28Y-125.329
X78.53Y-111.329
X78.53Y-113.829
X78.53Y-119.329
X78.53Y-122.079
X80.28Y-108.829
X81.53Y-157.829
X81.53Y-170.329
X83.03Y-129.329
X83.03Y-142.579
X83.03Y-146.079
X85.53Y-125.329
X86.28Y-164.329
X86.53Y-121.329
X86.53Y-167.829
X87.78Y-170.829
X90.28Y-181.329
X90.78Y-173.329
X91.03Y-166.829
X92.78Y-170.329
X93.78Y-122.579
X94.28Y-118.579
X97.78Y-140.329
X98.78Y-130.079
X98.78Y-175.579
X102.28Y-117.579
X106.28Y-120.329
X106.28Y-127.829
X107.03Y-143.579
X107.03Y-172.079
X107.53Y-147.579
X108.105Y-167.504
X108.78Y-124.579
X112.28Y-139.329
X113.03Y-176.829
X113.78Y-102.329
X116.28Y-171.079
X116.78Y-177.079
X117.53Y-123.329
X117.53Y-129.329
X118.03Y-140.079
X118.28Y-116.579
X119.28Y-144.829
X120.03Y-102.329
X120.28Y-177.079
X120.78Y-172.329
X121.03Y-181.079
X122.53Y-177.829
X125.53Y-138.329
X126.03Y-182.829
X126.28Y-115.829
X126.53Y-144.829
X129.53Y-150.579
X129.53Y-157.079
X132.78Y-171.329
X133.28Y-144.829
X134.78Y-133.329
X134.78Y-147.329
X135.28Y-178.829
X135.78Y-122.079
X135.78Y-124.579
X141.28Y-160.579
X141.53Y-177.329
X143.53Y-135.829
X144.155Y-107.454
X150.03Y-131.079
X150.28Y-118.329
X150.53Y-107.079
X153.53Y-104.079
X158.78Y-155.079
X160.03Y-103.829
X160.78Y-160.579
X160.78Y-166.329
X162.78Y-179.329
X163.53Y-171.079
X164.78Y-132.079
X166.28Y-163.829
X166.78Y-126.579
X167.78Y-178.579
X168.53Y-103.579
X170.03Y-154.579
X171.28Y-130.329
X172.53Y-147.329
X173.03Y-165.579
X173.28Y-171.079
X173.78Y-137.829
X173.78Y-141.079
X177.53Y-170.329
X178.03Y-163.829
X178.28Y-133.329
X178.78Y-126.829
X180.06Y-180.119
X182.37Y-182.279
X186.03Y-179.829
X188.28Y-148.079
X189.53Y-155.329
X190.78Y-112.579
X190.864Y-123.162
X192.78Y-134.579
X194.03Y-172.079
X195.03Y-154.079
X196.53Y-129.329
X199.03Y-148.579
X200.03Y-134.579
X200.53Y-130.829
X202.28Y-126.579
X205.28Y-130.079
X207.28Y-160.329
X212.03Y-156.079
X214.03Y-159.329
X214.53Y-124.829
X218.53Y-142.829
X219.53Y-123.579
X227.83Y-156.829
X230.28Y-123.329
X234.03Y-130.079
X236.28Y-124.079
X239.28Y-152.829
X243.03Y-148.079
X250.28Y-152.579
X254.28Y-150.579
X256.53Y-158.329
X261.5Y-108.5
X261.5Y-111.75
X261.5Y-116.5
X261.5Y-120.0
X261.5Y-126.25
X261.5Y-136.25
X261.5Y-139.25
X261.5Y-143.0
X261.5Y-146.5
X261.5Y-149.25
X261.5Y-152.5
X261.5Y-155.25
X261.5Y-157.0
X261.5Y-159.75
X261.5Y-161.5
X261.5Y-164.25
X261.5Y-166.75
X261.5Y-169.5
X261.5Y-173.75
X262.25Y-124.0
X266.5Y-110.5
X266.5Y-113.0
X266.5Y-115.5
X266.5Y-117.25
X266.5Y-120.0
X266.5Y-122.25
X266.5Y-124.5
X266.5Y-149.25
X266.5Y-152.5
X266.5Y-155.25
X266.5Y-157.0
X266.5Y-159.75
X266.5Y-161.5
X266.5Y-164.0
X266.5Y-166.75
X266.5Y-169.5
X266.5Y-173.25
X267.75Y-137.75
X268.0Y-144.75
X268.75Y-141.0
X279.5Y-137.5
X282.0Y-101.25
X282.25Y-151.0
X282.25Y-158.0
X282.5Y-121.0
X282.75Y-115.0
X283.5Y-127.25
X285.0Y-130.25
X289.5Y-158.0
X292.25Y-107.5
X294.625Y-132.125
X296.0Y-158.0
X299.0Y-127.25
X301.75Y-158.0
X303.5Y-146.0
X304.75Y-123.5
X307.0Y-130.25
X308.75Y-158.0
X310.75Y-146.5
X312.5Y-107.25
X313.75Y-158.0
X314.25Y-102.0
X314.75Y-122.75
X315.5Y-117.646
X315.5Y-149.25
X315.75Y-138.5
X317.25Y-125.75
X318.5Y-130.75
X320.25Y-158.0
X322.5Y-124.75
X323.5Y-106.44
X326.25Y-119.5
X326.75Y-158.0
X327.5Y-128.75
X330.0Y-106.0
X330.25Y-102.0
X330.25Y-140.75
X334.0Y-158.0
X336.75Y-116.75
X338.5Y-132.25
X338.75Y-126.25
X338.75Y-143.0
X340.0Y-112.5
X340.25Y-151.25
X340.25Y-158.0
X341.25Y-120.25
X346.75Y-116.5
X346.75Y-119.5
X347.0Y-147.75
X347.0Y-151.25
X347.0Y-158.0
X347.0Y-161.25
X347.0Y-174.25
X351.75Y-135.5
X351.75Y-137.75
X351.75Y-141.0
X351.75Y-144.25
X351.75Y-147.75
X351.75Y-151.25
X351.75Y-154.75
X351.75Y-158.0
X351.75Y-161.25
X351.75Y-164.75
X351.75Y-169.0
X351.75Y-174.25
T2
X81.28Y-112.079
X81.28Y-117.579
X81.28Y-123.079
X274.75Y-165.5
X274.75Y-171.25
X274.75Y-176.75
T3
X197.12Y-105.229
X197.13Y-110.909
X197.25Y-116.579
X197.8Y-169.169
X197.87Y-174.489
X197.92Y-180.249
X217.385Y-152.524
X218.655Y-151.254
X219.925Y-152.524
X239.34Y-156.024
X246.96Y-156.024
T4
X87.96Y-101.789
X87.96Y-106.869
X87.97Y-104.329
X87.97Y-109.409
X87.97Y-111.949
X87.98Y-114.489
X90.5Y-101.789
X90.5Y-106.869
X90.51Y-104.329
X90.51Y-109.409
X90.51Y-111.949
X90.52Y-114.489
X93.04Y-101.789
X93.04Y-106.869
X93.05Y-104.329
X93.05Y-109.409
X93.05Y-111.949
X93.06Y-114.489
X95.58Y-101.819
X95.58Y-106.899
X95.59Y-104.359
X95.59Y-109.439
X95.59Y-111.979
X95.6Y-114.519
X96.53Y-123.829
X98.12Y-101.829
X98.12Y-106.909
X98.13Y-104.369
X98.13Y-109.449
X98.13Y-111.989
X98.14Y-114.529
X99.07Y-123.829
X100.66Y-101.829
X100.66Y-106.909
X100.67Y-104.369
X100.67Y-109.449
X100.67Y-111.989
X100.68Y-114.529
X101.61Y-123.829
X103.2Y-101.829
X103.2Y-106.909
X103.21Y-104.369
X103.21Y-109.449
X103.21Y-111.989
X103.22Y-114.529
X105.74Y-101.829
X105.74Y-106.909
X105.75Y-104.369
X105.75Y-109.449
X105.75Y-111.989
X105.76Y-114.529
X108.28Y-101.829
X108.28Y-106.909
X108.29Y-104.369
X108.29Y-109.449
X108.29Y-111.989
X108.3Y-114.529
X159.53Y-135.079
X162.07Y-135.079
X163.78Y-158.329
X163.78Y-174.579
X164.61Y-135.079
X166.32Y-158.329
X166.32Y-174.579
X168.86Y-158.329
X168.86Y-174.579
X202.9Y-101.879
X202.9Y-106.959
X202.91Y-104.419
X202.91Y-109.499
X202.91Y-112.039
X202.92Y-114.579
X202.93Y-117.119
X202.94Y-119.659
X202.95Y-164.129
X202.95Y-169.209
X202.96Y-166.669
X202.96Y-171.749
X202.96Y-174.289
X202.97Y-176.829
X202.98Y-179.369
X202.99Y-181.909
X205.44Y-101.879
X205.44Y-106.959
X205.45Y-104.419
X205.45Y-109.499
X205.45Y-112.039
X205.46Y-114.579
X205.47Y-117.119
X205.48Y-119.659
X205.49Y-164.129
X205.49Y-169.209
X205.5Y-166.669
X205.5Y-171.749
X205.5Y-174.289
X205.51Y-176.829
X205.52Y-179.369
X205.53Y-181.909
X207.98Y-101.879
X207.98Y-106.959
X207.99Y-104.419
X207.99Y-109.499
X207.99Y-112.039
X208.0Y-114.579
X208.01Y-117.119
X208.02Y-119.659
X208.03Y-164.129
X208.03Y-169.209
X208.04Y-166.669
X208.04Y-171.749
X208.04Y-174.289
X208.05Y-176.829
X208.06Y-179.369
X208.07Y-181.909
X210.52Y-101.879
X210.52Y-106.959
X210.53Y-104.419
X210.53Y-109.499
X210.53Y-112.039
X210.54Y-114.579
X210.55Y-117.119
X210.56Y-119.659
X210.57Y-164.129
X210.57Y-169.209
X210.58Y-166.669
X210.58Y-171.749
X210.58Y-174.289
X210.59Y-176.829
X210.6Y-179.369
X210.61Y-181.909
X213.06Y-101.879
X213.06Y-106.959
X213.07Y-104.419
X213.07Y-109.499
X213.07Y-112.039
X213.08Y-114.579
X213.09Y-117.119
X213.1Y-119.659
X213.11Y-164.129
X213.11Y-169.209
X213.12Y-166.669
X213.12Y-171.749
X213.12Y-174.289
X213.13Y-176.829
X213.14Y-179.369
X213.15Y-181.909
X215.6Y-101.879
X215.6Y-106.959
X215.61Y-104.419
X215.61Y-109.499
X215.61Y-112.039
X215.62Y-114.579
X215.63Y-117.119
X215.64Y-119.659
X215.65Y-164.129
X215.65Y-169.209
X215.66Y-166.669
X215.66Y-171.749
X215.66Y-174.289
X215.67Y-176.829
X215.68Y-179.369
X215.69Y-181.909
X218.14Y-101.909
X218.14Y-106.989
X218.15Y-104.449
X218.15Y-109.529
X218.15Y-112.069
X218.16Y-114.609
X218.17Y-117.149
X218.18Y-119.689
X218.19Y-164.159
X218.19Y-169.239
X218.2Y-166.699
X218.2Y-171.779
X218.2Y-174.319
X218.21Y-176.859
X218.22Y-179.399
X218.23Y-181.939
X220.68Y-101.919
X220.68Y-106.999
X220.69Y-104.459
X220.69Y-109.539
X220.69Y-112.079
X220.7Y-114.619
X220.71Y-117.159
X220.72Y-119.699
X220.73Y-164.169
X220.73Y-169.249
X220.74Y-166.709
X220.74Y-171.789
X220.74Y-174.329
X220.75Y-176.869
X220.76Y-179.409
X220.77Y-181.949
X223.22Y-101.919
X223.22Y-106.999
X223.23Y-104.459
X223.23Y-109.539
X223.23Y-112.079
X223.24Y-114.619
X223.25Y-117.159
X223.26Y-119.699
X223.27Y-164.169
X223.27Y-169.249
X223.28Y-166.709
X223.28Y-171.789
X223.28Y-174.329
X223.29Y-176.869
X223.3Y-179.409
X223.31Y-181.949
X225.76Y-101.919
X225.76Y-106.999
X225.77Y-104.459
X225.77Y-109.539
X225.77Y-112.079
X225.78Y-114.619
X225.79Y-117.159
X225.8Y-119.699
X225.81Y-164.169
X225.81Y-169.249
X225.82Y-166.709
X225.82Y-171.789
X225.82Y-174.329
X225.83Y-176.869
X225.84Y-179.409
X225.85Y-181.949
X228.3Y-101.919
X228.3Y-106.999
X228.31Y-104.459
X228.31Y-109.539
X228.31Y-112.079
X228.32Y-114.619
X228.33Y-117.159
X228.34Y-119.699
X228.35Y-164.169
X228.35Y-169.249
X228.36Y-166.709
X228.36Y-171.789
X228.36Y-174.329
X228.37Y-176.869
X228.38Y-179.409
X228.39Y-181.949
X230.84Y-101.919
X230.84Y-106.999
X230.85Y-104.459
X230.85Y-109.539
X230.85Y-112.079
X230.86Y-114.619
X230.87Y-117.159
X230.88Y-119.699
X230.89Y-164.169
X230.89Y-169.249
X230.9Y-166.709
X230.9Y-171.789
X230.9Y-174.329
X230.91Y-176.869
X230.92Y-179.409
X230.93Y-181.949
X233.38Y-101.919
X233.38Y-106.999
X233.39Y-104.459
X233.39Y-109.539
X233.39Y-112.079
X233.4Y-114.619
X233.41Y-117.159
X233.42Y-119.699
X233.43Y-164.169
X233.43Y-169.249
X233.44Y-166.709
X233.44Y-171.789
X233.44Y-174.329
X233.45Y-176.869
X233.46Y-179.409
X233.47Y-181.949
X235.92Y-101.949
X235.92Y-107.029
X235.93Y-104.489
X235.93Y-109.569
X235.93Y-112.109
X235.94Y-114.649
X235.95Y-117.189
X235.96Y-119.729
X235.97Y-164.199
X235.97Y-169.279
X235.98Y-166.739
X235.98Y-171.819
X235.98Y-174.359
X235.99Y-176.899
X236.0Y-179.439
X236.01Y-181.979
X238.46Y-101.949
X238.46Y-107.029
X238.47Y-104.489
X238.47Y-109.569
X238.47Y-112.109
X238.48Y-114.649
X238.49Y-117.189
X238.5Y-119.729
X238.51Y-164.199
X238.51Y-169.279
X238.52Y-166.739
X238.52Y-171.819
X238.52Y-174.359
X238.53Y-176.899
X238.54Y-179.439
X238.55Y-181.979
X241.0Y-101.949
X241.0Y-107.029
X241.01Y-104.489
X241.01Y-109.569
X241.01Y-112.109
X241.02Y-114.649
X241.03Y-117.189
X241.04Y-119.729
X241.05Y-164.199
X241.05Y-169.279
X241.06Y-166.739
X241.06Y-171.819
X241.06Y-174.359
X241.07Y-176.899
X241.08Y-179.439
X241.09Y-181.979
X243.54Y-101.949
X243.54Y-107.029
X243.55Y-104.489
X243.55Y-109.569
X243.55Y-112.109
X243.56Y-114.649
X243.57Y-117.189
X243.58Y-119.729
X243.59Y-164.199
X243.59Y-169.279
X243.6Y-166.739
X243.6Y-171.819
X243.6Y-174.359
X243.61Y-176.899
X243.62Y-179.439
X243.63Y-181.979
X246.08Y-101.949
X246.08Y-107.029
X246.09Y-104.489
X246.09Y-109.569
X246.09Y-112.109
X246.1Y-114.649
X246.11Y-117.189
X246.12Y-119.729
X246.13Y-164.199
X246.13Y-169.279
X246.14Y-166.739
X246.14Y-171.819
X246.14Y-174.359
X246.15Y-176.899
X246.16Y-179.439
X246.17Y-181.979
X248.62Y-101.949
X248.62Y-107.029
X248.63Y-104.489
X248.63Y-109.569
X248.63Y-112.109
X248.64Y-114.649
X248.65Y-117.189
X248.66Y-119.729
X248.67Y-164.199
X248.67Y-169.279
X248.68Y-166.739
X248.68Y-171.819
X248.68Y-174.359
X248.69Y-176.899
X248.7Y-179.439
X248.71Y-181.979
X251.16Y-101.949
X251.16Y-107.029
X251.17Y-104.489
X251.17Y-109.569
X251.17Y-112.109
X251.18Y-114.649
X251.19Y-117.189
X251.2Y-119.729
X251.21Y-164.199
X251.21Y-169.279
X251.22Y-166.739
X251.22Y-171.819
X251.22Y-174.359
X251.23Y-176.899
X251.24Y-179.439
X251.25Y-181.979
X253.7Y-101.949
X253.7Y-107.029
X253.71Y-104.489
X253.71Y-109.569
X253.71Y-112.109
X253.72Y-114.649
X253.73Y-117.189
X253.74Y-119.729
X253.75Y-164.199
X253.75Y-169.279
X253.76Y-166.739
X253.76Y-171.819
X253.76Y-174.359
X253.77Y-176.899
X253.78Y-179.439
X253.79Y-181.979
X256.24Y-101.949
X256.24Y-107.029
X256.25Y-104.489
X256.25Y-109.569
X256.25Y-112.109
X256.26Y-114.649
X256.27Y-117.189
X256.28Y-119.729
X256.29Y-164.199
X256.29Y-169.279
X256.3Y-166.739
X256.3Y-171.819
X256.3Y-174.359
X256.31Y-176.899
X256.32Y-179.439
X256.33Y-181.979
X285.1Y-164.13
X285.1Y-169.21
X285.11Y-166.67
X285.11Y-171.75
X285.11Y-174.29
X285.12Y-176.83
X285.13Y-179.37
X285.14Y-181.91
X287.64Y-164.13
X287.64Y-169.21
X287.65Y-166.67
X287.65Y-171.75
X287.65Y-174.29
X287.66Y-176.83
X287.67Y-179.37
X287.68Y-181.91
X290.18Y-164.13
X290.18Y-169.21
X290.19Y-166.67
X290.19Y-171.75
X290.19Y-174.29
X290.2Y-176.83
X290.21Y-179.37
X290.22Y-181.91
X292.72Y-164.13
X292.72Y-169.21
X292.73Y-166.67
X292.73Y-171.75
X292.73Y-174.29
X292.74Y-176.83
X292.75Y-179.37
X292.76Y-181.91
X295.26Y-164.13
X295.26Y-169.21
X295.27Y-166.67
X295.27Y-171.75
X295.27Y-174.29
X295.28Y-176.83
X295.29Y-179.37
X295.3Y-181.91
X297.8Y-164.13
X297.8Y-169.21
X297.81Y-166.67
X297.81Y-171.75
X297.81Y-174.29
X297.82Y-176.83
X297.83Y-179.37
X297.84Y-181.91
X300.34Y-164.16
X300.34Y-169.24
X300.35Y-166.7
X300.35Y-171.78
X300.35Y-174.32
X300.36Y-176.86
X300.37Y-179.4
X300.38Y-181.94
X302.88Y-164.17
X302.88Y-169.25
X302.89Y-166.71
X302.89Y-171.79
X302.89Y-174.33
X302.9Y-176.87
X302.91Y-179.41
X302.92Y-181.95
X305.42Y-164.17
X305.42Y-169.25
X305.43Y-166.71
X305.43Y-171.79
X305.43Y-174.33
X305.44Y-176.87
X305.45Y-179.41
X305.46Y-181.95
X307.96Y-164.17
X307.96Y-169.25
X307.97Y-166.71
X307.97Y-171.79
X307.97Y-174.33
X307.98Y-176.87
X307.99Y-179.41
X308.0Y-181.95
X310.5Y-164.17
X310.5Y-169.25
X310.51Y-166.71
X310.51Y-171.79
X310.51Y-174.33
X310.52Y-176.87
X310.53Y-179.41
X310.54Y-181.95
X313.04Y-164.17
X313.04Y-169.25
X313.05Y-166.71
X313.05Y-171.79
X313.05Y-174.33
X313.06Y-176.87
X313.07Y-179.41
X313.08Y-181.95
X315.58Y-164.17
X315.58Y-169.25
X315.59Y-166.71
X315.59Y-171.79
X315.59Y-174.33
X315.6Y-176.87
X315.61Y-179.41
X315.62Y-181.95
X318.12Y-164.2
X318.12Y-169.28
X318.13Y-166.74
X318.13Y-171.82
X318.13Y-174.36
X318.14Y-176.9
X318.15Y-179.44
X318.16Y-181.98
X320.66Y-164.2
X320.66Y-169.28
X320.67Y-166.74
X320.67Y-171.82
X320.67Y-174.36
X320.68Y-176.9
X320.69Y-179.44
X320.7Y-181.98
X323.2Y-164.2
X323.2Y-169.28
X323.21Y-166.74
X323.21Y-171.82
X323.21Y-174.36
X323.22Y-176.9
X323.23Y-179.44
X323.24Y-181.98
X325.74Y-164.2
X325.74Y-169.28
X325.75Y-166.74
X325.75Y-171.82
X325.75Y-174.36
X325.76Y-176.9
X325.77Y-179.44
X325.78Y-181.98
X328.28Y-164.2
X328.28Y-169.28
X328.29Y-166.74
X328.29Y-171.82
X328.29Y-174.36
X328.3Y-176.9
X328.31Y-179.44
X328.32Y-181.98
X330.82Y-164.2
X330.82Y-169.28
X330.83Y-166.74
X330.83Y-171.82
X330.83Y-174.36
X330.84Y-176.9
X330.85Y-179.44
X330.86Y-181.98
X333.36Y-164.2
X333.36Y-169.28
X333.37Y-166.74
X333.37Y-171.82
X333.37Y-174.36
X333.38Y-176.9
X333.39Y-179.44
X333.4Y-181.98
X335.9Y-164.2
X335.9Y-169.28
X335.91Y-166.74
X335.91Y-171.82
X335.91Y-174.36
X335.92Y-176.9
X335.93Y-179.44
X335.94Y-181.98
X338.44Y-164.2
X338.44Y-169.28
X338.45Y-166.74
X338.45Y-171.82
X338.45Y-174.36
X338.46Y-176.9
X338.47Y-179.44
X338.48Y-181.98
T5
X90.28Y-124.669
X90.28Y-134.829
X90.28Y-137.329
X90.28Y-147.489
X93.66Y-157.329
X93.66Y-163.579
X95.28Y-144.079
X97.57Y-151.579
X97.57Y-169.579
X97.78Y-144.079
X100.07Y-151.579
X100.07Y-169.579
X103.82Y-157.329
X103.82Y-163.579
X106.49Y-157.329
X106.49Y-163.579
X106.78Y-132.329
X106.78Y-134.829
X110.32Y-151.579
X110.32Y-169.579
X112.45Y-110.329
X112.45Y-116.579
X112.45Y-123.079
X112.45Y-129.329
X112.45Y-135.829
X112.82Y-151.579
X112.82Y-169.579
X116.65Y-157.329
X116.65Y-163.579
X121.07Y-159.829
X121.07Y-162.329
X122.61Y-110.329
X122.61Y-116.579
X122.61Y-123.079
X122.61Y-129.329
X122.61Y-135.829
X124.49Y-174.579
X125.7Y-152.289
X125.7Y-154.829
X125.7Y-157.369
X125.7Y-159.909
X125.7Y-162.449
X125.7Y-164.989
X125.7Y-167.529
X127.28Y-118.329
X127.28Y-120.829
X127.28Y-123.579
X127.28Y-126.079
X130.7Y-104.079
X130.7Y-133.079
X130.7Y-139.579
X131.97Y-110.709
X131.97Y-113.249
X131.97Y-115.789
X131.97Y-118.329
X131.97Y-120.869
X131.97Y-123.409
X131.97Y-125.949
X133.32Y-152.289
X133.32Y-154.829
X133.32Y-157.369
X133.32Y-159.909
X133.32Y-162.449
X133.32Y-164.989
X133.32Y-167.529
X134.65Y-174.579
X138.07Y-159.829
X138.07Y-162.329
X139.59Y-110.709
X139.59Y-113.249
X139.59Y-115.789
X139.59Y-118.329
X139.59Y-120.869
X139.59Y-123.409
X139.59Y-125.949
X140.86Y-104.079
X140.86Y-133.079
X140.86Y-139.579
X144.07Y-156.829
X144.15Y-162.829
X144.28Y-118.329
X144.28Y-120.829
X144.28Y-123.579
X144.28Y-126.079
X144.45Y-168.829
X144.49Y-144.579
X144.49Y-150.829
X144.49Y-174.829
X146.57Y-156.829
X146.65Y-162.829
X150.28Y-113.249
X150.28Y-123.409
X150.28Y-125.999
X150.28Y-136.159
X152.32Y-156.829
X152.32Y-162.829
X154.61Y-168.829
X154.65Y-144.579
X154.65Y-150.829
X154.65Y-174.829
X154.82Y-156.829
X154.82Y-162.829
X155.45Y-110.579
X155.45Y-117.079
X155.45Y-123.579
X158.99Y-144.579
X165.61Y-110.579
X165.61Y-117.079
X165.61Y-123.579
X169.15Y-144.579
X170.09Y-116.889
X170.09Y-119.389
X173.45Y-126.829
X173.45Y-133.329
X173.7Y-103.579
X174.78Y-111.579
X174.78Y-114.119
X174.78Y-116.659
X174.78Y-119.199
X176.26Y-164.889
X176.26Y-167.389
X179.43Y-151.889
X180.76Y-159.769
X180.76Y-162.309
X180.76Y-164.849
X180.76Y-167.389
X182.4Y-111.579
X182.4Y-114.119
X182.4Y-116.659
X182.4Y-119.199
X183.61Y-126.829
X183.61Y-133.329
X183.86Y-103.579
X187.09Y-109.389
X187.09Y-111.889
X188.38Y-159.769
X188.38Y-162.309
X188.38Y-164.849
X188.38Y-167.389
X189.59Y-151.889
X193.01Y-159.889
X193.01Y-162.389
X200.03Y-139.289
X200.03Y-141.829
X200.03Y-144.369
X206.995Y-133.274
X206.995Y-139.424
X206.995Y-145.774
X217.155Y-133.274
X217.155Y-139.424
X217.155Y-145.774
X220.155Y-139.424
X220.155Y-145.774
X220.305Y-133.274
X220.325Y-127.024
X230.315Y-139.424
X230.315Y-145.774
X230.405Y-149.774
X230.405Y-152.274
X230.465Y-133.274
X230.485Y-127.024
X234.655Y-142.024
X234.655Y-144.524
X238.075Y-127.024
X239.405Y-134.324
X239.405Y-136.864
X239.405Y-139.404
X239.405Y-141.944
X239.405Y-144.484
X239.405Y-147.024
X239.405Y-149.564
X247.025Y-134.324
X247.025Y-136.864
X247.025Y-139.404
X247.025Y-141.944
X247.025Y-144.484
X247.025Y-147.024
X247.025Y-149.564
X248.235Y-127.024
X251.905Y-127.044
X251.905Y-137.204
X251.905Y-142.024
X251.905Y-144.524
X283.5Y-134.42
X283.5Y-144.58
X285.75Y-100.5
X285.75Y-103.0
X289.0Y-107.69
X289.0Y-117.85
X289.5Y-134.42
X289.5Y-144.58
X293.67Y-127.5
X294.94Y-135.44
X294.94Y-137.98
X294.94Y-140.52
X294.94Y-143.06
X295.5Y-107.67
X295.5Y-117.83
X297.5Y-121.5
X297.5Y-150.75
X300.0Y-121.5
X300.0Y-150.75
X302.0Y-107.67
X302.0Y-117.83
X302.56Y-135.44
X302.56Y-137.98
X302.56Y-140.52
X302.56Y-143.06
X303.83Y-127.5
X307.0Y-135.5
X307.0Y-138.0
X308.5Y-107.67
X308.5Y-117.83
X311.75Y-100.5
X311.75Y-103.0
X317.0Y-100.5
X317.0Y-103.0
X320.25Y-106.78
X320.25Y-116.94
X320.5Y-133.61
X320.5Y-143.77
X325.17Y-126.94
X326.44Y-134.88
X326.44Y-137.42
X326.44Y-139.96
X326.44Y-142.5
X327.0Y-106.78
X327.0Y-116.94
X329.0Y-120.69
X329.0Y-150.19
X331.5Y-120.69
X331.5Y-150.19
X333.5Y-106.78
X333.5Y-116.94
X334.06Y-134.88
X334.06Y-137.42
X334.06Y-139.96
X334.06Y-142.5
X335.33Y-126.94
X338.75Y-134.94
X338.75Y-137.44
X340.0Y-106.78
X340.0Y-116.94
X343.5Y-100.5
X343.5Y-103.0
T6
X95.22Y-132.269
X95.22Y-134.809
X95.22Y-137.349
X95.22Y-139.889
X102.84Y-132.269
X102.84Y-134.809
X102.84Y-137.349
X102.84Y-139.889
T7
X94.03Y-176.829
X94.03Y-181.829
X107.28Y-176.829
X107.28Y-181.829
X177.315Y-141.554
X177.315Y-144.154
X179.855Y-141.554
X179.855Y-144.154
X261.205Y-130.5
X263.745Y-130.5
X272.75Y-115.75
X272.882Y-129.5
X277.75Y-115.75
X277.882Y-129.5
T8
X82.92Y-149.989
X82.92Y-152.529
X82.92Y-155.069
X83.03Y-134.789
X83.03Y-137.329
X272.67Y-104.75
X275.21Y-104.75
X277.75Y-104.75
X290.25Y-102.195
X292.79Y-102.195
X295.33Y-102.195
X302.29Y-102.195
X304.83Y-102.195
X307.37Y-102.195
X321.46Y-102.135
X324.0Y-102.135
X326.54Y-102.135
X334.0Y-102.14
X336.54Y-102.14
X339.08Y-102.14
X349.25Y-123.71
X349.25Y-126.25
X349.25Y-128.79
T9
X81.25Y-103.5
X81.25Y-180.25
X192.75Y-103.5
X192.75Y-180.25
X264.0Y-103.5
X264.0Y-180.25
X349.75Y-103.5
X349.75Y-180.25
M30
